<?xml version="1.0" encoding="utf-8"?>
<!-- Generator: Adobe Illustrator 19.1.0, SVG Export Plug-In . SVG Version: 6.00 Build 0)  -->
<svg version="1.1" id="Layer_1" xmlns="http://www.w3.org/2000/svg" xmlns:xlink="http://www.w3.org/1999/xlink" x="0px" y="0px"
	 viewBox="-461 263.4 36.9 36.9" style="enable-background:new -461 263.4 36.9 36.9;" xml:space="preserve">
<style type="text/css">
	.st0{fill:#519640;}
	.st1{fill:#FFFFFF;}
</style>
<circle class="st0" cx="-442.6" cy="281.8" r="17.9"/>
<g>
	<path class="st1" d="M-445.1,271.1c0.5-0.5,1.2-0.8,2-0.8s1.5,0.3,2.1,0.8s0.9,1.2,0.9,1.9c0,0.8-0.3,1.4-0.9,1.9s-1.3,0.8-2.1,0.8
		c-0.8,0-1.5-0.3-2.1-0.8s-0.9-1.2-0.9-1.9C-446,272.3-445.7,271.7-445.1,271.1z"/>
	<path class="st1" d="M-438,293.3h-9.4v-1.1c0.3,0,0.5,0,0.8-0.1c0.2,0,0.5-0.1,0.6-0.1c0.3-0.1,0.5-0.3,0.7-0.5
		c0.1-0.2,0.2-0.5,0.2-0.9V282c0-0.3-0.1-0.6-0.2-0.9c-0.2-0.3-0.4-0.5-0.6-0.6s-0.4-0.2-0.8-0.3s-0.7-0.2-1-0.2v-1.1l7.3-0.4
		l0.2,0.2v11.8c0,0.3,0.1,0.6,0.2,0.9c0.1,0.2,0.4,0.4,0.6,0.5s0.4,0.2,0.7,0.2c0.2,0.1,0.5,0.1,0.7,0.1L-438,293.3L-438,293.3
		L-438,293.3z"/>
</g>
</svg>
