<?xml version="1.0" encoding="utf-8"?>
<!-- Generator: Adobe Illustrator 19.1.0, SVG Export Plug-In . SVG Version: 6.00 Build 0)  -->
<svg version="1.1" id="Layer_1" xmlns="http://www.w3.org/2000/svg" xmlns:xlink="http://www.w3.org/1999/xlink" x="0px" y="0px"
	 viewBox="0 0 43.8 43.1" style="enable-background:new 0 0 43.8 43.1;" xml:space="preserve">
<style type="text/css">
	.st0{fill:#F1C40F;stroke:#1A1A1A;stroke-width:2;stroke-miterlimit:10;}
	.st1{fill:#1A1A1A;}
</style>
<circle class="st0" cx="22" cy="21.5" r="20.1"/>
<g>
	<path class="st1" d="M31.4,14l-0.2-1.2c-0.2-0.9-1.1-1.4-1.9-1.2L18.1,14H31.4z"/>
	<path class="st1" d="M11.5,16.4c0-0.4,0.1-0.7,0.2-1.1l-1.5,0.3c-0.9,0.2-1.4,1.1-1.2,1.9L11.5,29V16.4z"/>
	<path class="st1" d="M30.9,21.8c-0.6,0-1.1-0.1-1.4-0.3l0.2-0.9c0.3,0.2,0.7,0.3,1.2,0.3c0.5,0,0.8-0.2,0.8-0.5
		c0-0.3-0.2-0.5-0.8-0.7c-0.8-0.3-1.3-0.7-1.3-1.4c0-0.8,0.7-1.5,1.8-1.5c0.5,0,0.9,0.1,1.2,0.2l-0.2,0.9c-0.2-0.1-0.5-0.2-1-0.2
		c-0.5,0-0.7,0.2-0.7,0.5c0,0.3,0.3,0.4,0.9,0.7c0.9,0.3,1.3,0.8,1.3,1.4C32.9,21.1,32.2,21.8,30.9,21.8z M32.1,24.1h-7.4
		c-0.3,0-0.5-0.2-0.5-0.5s0.2-0.5,0.5-0.5h7.4c0.3,0,0.5,0.2,0.5,0.5S32.4,24.1,32.1,24.1z M32.1,26.1h-7.4c-0.3,0-0.5-0.2-0.5-0.5
		s0.2-0.5,0.5-0.5h7.4c0.3,0,0.5,0.2,0.5,0.5S32.4,26.1,32.1,26.1z M32.1,28.2h-7.4c-0.3,0-0.5-0.2-0.5-0.5s0.2-0.5,0.5-0.5h7.4
		c0.3,0,0.5,0.2,0.5,0.5S32.4,28.2,32.1,28.2z M32.1,30.2h-7.4c-0.3,0-0.5-0.2-0.5-0.5s0.2-0.5,0.5-0.5h7.4c0.3,0,0.5,0.2,0.5,0.5
		S32.4,30.2,32.1,30.2z M24.2,16.9l0.4,2c0.1,0.6,0.2,1.2,0.3,1.7h0c0.1-0.5,0.2-1.1,0.3-1.7l0.4-2h1.2l0.4,2
		c0.1,0.6,0.2,1.1,0.3,1.6h0c0.1-0.5,0.2-1.1,0.3-1.7l0.4-2h1.1L28,21.7h-1.2l-0.4-2.1c-0.1-0.5-0.2-1-0.2-1.5h0
		c-0.1,0.5-0.2,1-0.3,1.5l-0.5,2.1h-1.2L23,16.9H24.2z M22.3,24.1h-7.4c-0.3,0-0.5-0.2-0.5-0.5s0.2-0.5,0.5-0.5h7.4
		c0.3,0,0.5,0.2,0.5,0.5S22.6,24.1,22.3,24.1z M22.3,26.1h-7.4c-0.3,0-0.5-0.2-0.5-0.5s0.2-0.5,0.5-0.5h7.4c0.3,0,0.5,0.2,0.5,0.5
		S22.6,26.1,22.3,26.1z M22.3,28.2h-7.4c-0.3,0-0.5-0.2-0.5-0.5s0.2-0.5,0.5-0.5h7.4c0.3,0,0.5,0.2,0.5,0.5S22.6,28.2,22.3,28.2z
		 M22.3,30.2h-7.4c-0.3,0-0.5-0.2-0.5-0.5s0.2-0.5,0.5-0.5h7.4c0.3,0,0.5,0.2,0.5,0.5S22.6,30.2,22.3,30.2z M14.6,16.9h1.3l1,1.8
		c0.3,0.5,0.6,1.1,0.8,1.7h0c-0.1-0.6-0.1-1.3-0.1-2v-1.4h1v4.9h-1.2l-1-1.9c-0.3-0.5-0.6-1.1-0.8-1.7l0,0c0,0.6,0,1.3,0,2.1v1.5h-1
		L14.6,16.9L14.6,16.9z M19.5,16.9h3v0.9h-1.9v1h1.8v0.9h-1.8v1.1h2v0.9h-3.1V16.9z M34.9,16.4c0-0.9-0.7-1.6-1.6-1.6H13.9
		c-0.9,0-1.6,0.7-1.6,1.6v13.4c0,0.9,0.7,1.6,1.6,1.6h19.5c0.9,0,1.6-0.7,1.6-1.6L34.9,16.4L34.9,16.4z"/>
</g>
</svg>
