<?xml version="1.0" encoding="utf-8"?>
<!-- Generator: Adobe Illustrator 19.1.0, SVG Export Plug-In . SVG Version: 6.00 Build 0)  -->
<svg version="1.1" id="Layer_1" xmlns="http://www.w3.org/2000/svg" xmlns:xlink="http://www.w3.org/1999/xlink" x="0px" y="0px"
	 viewBox="0 0 37 36.2" style="enable-background:new 0 0 37 36.2;" xml:space="preserve">
<style type="text/css">
	.st0{fill:#1A1A1A;}
	.st1{fill:none;stroke:#1A1A1A;stroke-miterlimit:10;}
</style>
<g>
	<path class="st0" d="M26.4,11.9l-0.2-1c-0.2-0.7-0.9-1.2-1.6-1l-9.3,2H26.4z"/>
	<path class="st0" d="M9.8,13.9c0-0.3,0.1-0.6,0.2-0.9l-1.2,0.3c-0.7,0.2-1.2,0.9-1,1.6l2,9.5V13.9z"/>
	<path class="st0" d="M25.9,18.3c-0.5,0-0.9-0.1-1.1-0.2l0.2-0.7c0.2,0.1,0.6,0.2,1,0.2c0.4,0,0.6-0.2,0.6-0.4
		c0-0.2-0.2-0.4-0.7-0.6c-0.7-0.2-1.1-0.6-1.1-1.2c0-0.7,0.6-1.2,1.5-1.2c0.5,0,0.8,0.1,1,0.2l-0.2,0.7c-0.2-0.1-0.4-0.2-0.8-0.2
		c-0.4,0-0.6,0.2-0.6,0.4c0,0.3,0.2,0.4,0.7,0.6c0.7,0.3,1,0.6,1,1.2C27.5,17.7,27,18.3,25.9,18.3z M26.9,20.2h-6.1
		c-0.2,0-0.4-0.2-0.4-0.4s0.2-0.4,0.4-0.4h6.1c0.2,0,0.4,0.2,0.4,0.4S27.1,20.2,26.9,20.2z M26.9,21.9h-6.1c-0.2,0-0.4-0.2-0.4-0.4
		s0.2-0.4,0.4-0.4h6.1c0.2,0,0.4,0.2,0.4,0.4S27.1,21.9,26.9,21.9z M26.9,23.6h-6.1c-0.2,0-0.4-0.2-0.4-0.4s0.2-0.4,0.4-0.4h6.1
		c0.2,0,0.4,0.2,0.4,0.4S27.1,23.6,26.9,23.6z M26.9,25.3h-6.1c-0.2,0-0.4-0.2-0.4-0.4s0.2-0.4,0.4-0.4h6.1c0.2,0,0.4,0.2,0.4,0.4
		S27.1,25.3,26.9,25.3z M20.4,14.2l0.3,1.6c0.1,0.5,0.2,1,0.2,1.4h0c0.1-0.4,0.2-0.9,0.3-1.4l0.3-1.6h1l0.3,1.7
		c0.1,0.5,0.2,0.9,0.2,1.3h0c0.1-0.4,0.1-0.9,0.2-1.4l0.3-1.6h0.9l-1,4h-1l-0.3-1.7c-0.1-0.4-0.1-0.8-0.2-1.2h0
		c-0.1,0.4-0.1,0.8-0.2,1.2l-0.4,1.7h-1l-1-4H20.4z M18.8,20.2h-6.1c-0.2,0-0.4-0.2-0.4-0.4s0.2-0.4,0.4-0.4h6.1
		c0.2,0,0.4,0.2,0.4,0.4S19,20.2,18.8,20.2z M18.8,21.9h-6.1c-0.2,0-0.4-0.2-0.4-0.4s0.2-0.4,0.4-0.4h6.1c0.2,0,0.4,0.2,0.4,0.4
		S19,21.9,18.8,21.9z M18.8,23.6h-6.1c-0.2,0-0.4-0.2-0.4-0.4s0.2-0.4,0.4-0.4h6.1c0.2,0,0.4,0.2,0.4,0.4S19,23.6,18.8,23.6z
		 M18.8,25.3h-6.1c-0.2,0-0.4-0.2-0.4-0.4s0.2-0.4,0.4-0.4h6.1c0.2,0,0.4,0.2,0.4,0.4S19,25.3,18.8,25.3z M12.4,14.2h1l0.8,1.5
		c0.2,0.4,0.5,0.9,0.7,1.4h0c-0.1-0.5-0.1-1.1-0.1-1.7v-1.2h0.9v4h-1l-0.9-1.5c-0.2-0.4-0.5-0.9-0.7-1.4l0,0c0,0.5,0,1.1,0,1.7v1.2
		h-0.8L12.4,14.2L12.4,14.2z M16.5,14.2h2.5V15h-1.6v0.8h1.5v0.8h-1.5v1H19v0.7h-2.6V14.2z M29.3,13.9c0-0.7-0.6-1.3-1.3-1.3H11.8
		c-0.7,0-1.3,0.6-1.3,1.3V25c0,0.7,0.6,1.3,1.3,1.3h16.1c0.7,0,1.3-0.6,1.3-1.3L29.3,13.9L29.3,13.9z"/>
</g>
<circle class="st1" cx="18.5" cy="18.1" r="16.6"/>
</svg>
