<?xml version="1.0" encoding="utf-8"?>
<!-- Generator: Adobe Illustrator 19.1.0, SVG Export Plug-In . SVG Version: 6.00 Build 0)  -->
<svg version="1.1" id="Layer_1" xmlns="http://www.w3.org/2000/svg" xmlns:xlink="http://www.w3.org/1999/xlink" x="0px" y="0px"
	 viewBox="-268 69.4 423 423.6" style="enable-background:new -268 69.4 423 423.6;" xml:space="preserve">
<style type="text/css">
	.st0{fill:#519640;}
	.st1{fill:none;stroke:#FFFFFF;stroke-width:8;stroke-miterlimit:10;}
	.st2{fill:#519640;stroke:#519640;stroke-width:20;stroke-miterlimit:10;}
	.st3{fill:none;}
	.st4{enable-background:new    ;}
	.st5{fill:#FFFFFF;}
</style>
<g>
	<path class="st0" d="M151.1,287.1c0,30.2-12.4,57.5-32.4,77c-5.1,54.1-50,96.5-105.2,97.6C-5.4,478-30.1,488-57.1,488
		s-51.7-9.9-70.6-26.3c-55-1.1-99.8-43.4-105-97.2c-20.2-19.6-32.7-47-32.7-77.3c0-29.4,11.8-56.1,30.9-75.5
		c0.8-56.9,45.6-103.2,102-106.1c19.4-19,46.1-30.8,75.4-30.8c29.4,0,56.1,11.8,75.6,31c54.3,4.2,97.3,48.7,99.2,103.5
		C138.3,228.8,151.1,256.4,151.1,287.1z"/>
</g>
<g>
	<path class="st1" d="M132.7,286.6c0,27.5-11.3,52.4-29.6,70.2c-4.6,49.3-45.6,88-95.9,88.9c-17.2,15-39.7,24-64.4,24
		s-47.1-9-64.4-24c-50.1-1-91-39.6-95.7-88.7c-18.4-17.9-29.8-42.9-29.8-70.5c0-26.8,10.8-51.1,28.2-68.9
		c0.7-51.9,41.6-94.1,93-96.8c17.7-17.4,42-28.1,68.8-28.1c26.9,0,51.2,10.8,68.9,28.2c49.5,3.8,88.7,44.4,90.5,94.4
		C121.1,233.4,132.7,258.6,132.7,286.6z"/>
</g>
<circle class="st2" cx="-56.7" cy="-149.5" r="199"/>
<rect x="-158.3" y="215.8" class="st3" width="203.3" height="128"/>
<g>
	<g class="st4">
		<path class="st5" d="M-94.5,230.3c0.1,0.9,0.2,1.9,0.2,2.8c0,5.3-2.2,10.9-6.7,17c-3.6,4.9-8,9.2-13.3,13.1
			c-4.8,3.5-8.1,5.1-9.8,4.8c-1.9-0.3-5.3-1.7-10.1-4.2c-4.8-2.6-7.4-4.3-7.8-5.3c-0.1-0.3-0.2-0.5-0.2-0.9c0-0.4,0.1-0.9,0.3-1.5
			c0.2-0.6,0.3-1.1,0.3-1.4v-61.5c0-1,1.4-1.5,4.2-1.5c1.3,0,2.4,0.1,3.3,0.4c3-1.9,6.7-3.6,11.3-5.1c4.5-1.5,8.4-2.2,11.6-2.2
			c1.9,0,3.4,0.3,4.4,0.8c1,0.5,2,1.5,2.9,2.8c1.1,1.8,1.9,3,2.4,3.4c0.1,0.1,1.2,1,3.1,2.6c1.1,0.9,1.9,2,2.2,3
			c0.3,0.8,0.4,1.6,0.4,2.5c0,5-3.3,10.4-10,16.3C-98.9,221.5-95.2,226.2-94.5,230.3z M-111.1,199.5c-0.1-0.3-0.5-0.4-1-0.4
			c-1.5,0-3.7,0.8-6.8,2.3c-3.1,1.5-5.2,3-6.3,4.4v9.9c4.1-3.2,7.6-6.5,10.5-9.9C-111.8,202.4-110.6,200.3-111.1,199.5z
			 M-107.7,227.6c-1.6,0.1-4.4,0.9-8.4,2.4c-4.2,1.7-7.3,3.4-9.2,5v17.7c4.1-1.1,8.2-4.6,12.2-10.4
			C-109.1,236.4-107.3,231.5-107.7,227.6z"/>
		<path class="st5" d="M-38.9,194.2c0.1-0.7,0.1,5.4,0.1,18.1c0,36.1-5,54.7-15.1,55.8c-1.8,0.2-3.9-0.1-6.4-0.9
			c-2.5-0.8-5-1.6-7.4-2.5c-2.1-0.5-4.2-1.1-6.3-1.7c-2.1-0.6-3.8-1.6-5-2.9c-2.6-2.8-4.7-9.1-6.3-18.6c-1.4-8.8-2.1-18.6-2.1-29.3
			c0-8.2,0.4-15.5,1.3-21.7c0.3-2,1.2-3.2,2.8-3.8c0.7-0.3,3.1,0.2,7.3,1.3c4.1,1.1,6.6,2.1,7.3,2.9c0.3,0.4,0.5,0.9,0.5,1.5
			c0,0.8-0.3,1.9-0.9,3.4c-0.6,1.4-0.9,2.5-0.9,3.4c-0.3,1.2-0.5,4.7-0.5,10.4c0,11.1,0.5,21.2,1.5,30.3c1.3,11.7,3.1,17.3,5.5,17.1
			c3-0.3,5.3-5.9,6.8-16.6c1.2-8.3,1.8-18.1,1.8-29.3c0-7.4-0.2-12.1-0.7-14c0.1-1.1,0-2.1-0.4-3.1c-0.6-1.4-0.9-2.2-0.9-2.3
			c-0.4-2.2,0.3-3.8,2.1-4.8c0.3-0.2,0.9-0.3,1.6-0.3c1.9,0,4.6,0.5,8,1.4s5.4,1.7,6,2.4C-38.7,190.9-38.7,192.1-38.9,194.2z"/>
		<path class="st5" d="M28.5,194.4c0.4,3.3-0.4,5.4-2.3,6.3c-1.1,0.5-1.6,0.8-1.5,0.8c-3.7,5.6-8.5,15.5-14.5,29.7
			c-5.6,13.4-8.6,21.5-8.8,24.2c-0.1,0.5,0.1,1.4,0.4,2.7c0.3,1.3,0.4,2.3,0.4,3.1c-0.4,4.3-1.5,6.6-3.2,6.9
			c-0.9,0.1-3.1-0.3-6.6-1.4c-3.5-1.1-5.9-2-7.1-2.8c-2.2-1.5-3.2-3-3.2-4.6c0-0.8,0.2-1.6,0.7-2.6c0.9-2.5,2.8-7.5,5.6-15.2
			c-5.3-10.8-8.8-18.3-10.6-22.4c-3.7-8.2-6.3-15-7.8-20.2c-0.1-0.3-0.5-0.8-1.1-1.4c-0.6-0.6-0.9-1.2-0.9-1.7
			c0-0.9,1.2-2.4,3.7-4.3c5.3-4.1,8.9-6,10.8-5.7c1,0.1,1.9,0.8,2.8,2c0.7,0.9,1.1,1.8,1.2,2.6c0,1.2,0.2,3.1,0.6,5.8
			c1.5,7.9,4.5,16.4,9.1,25.5c3.5-8.7,5.5-13.5,6-14.3c2.4-5.4,5.1-10.4,8.2-15.1c0.3-1,0.7-2.3,1.3-3.9c1.3-1.5,3-2.1,5.1-1.8
			c1.5,0.2,3.8,1.3,7,3.3C26.8,192,28.4,193.5,28.5,194.4z"/>
	</g>
	<g class="st4">
		<path class="st5" d="M-38.2,369.4c-0.5,3.3-1.5,5.1-2.8,5.4c-1.8,0.5-5.4,0-10.6-1.5c-5.5-1.5-8.6-3.1-9.4-4.6
			c-0.2-0.5-0.3-1.1-0.3-1.7c0-0.5,0.1-1.2,0.3-2.2c0.2-1,0.3-1.9,0.3-2.6v-52.1c-3.6,7-8.3,22.9-14.1,47.5c-0.1,0.3-0.1,0.7-0.1,1
			c0,0.8,0.1,2,0.4,3.7c0.3,1.7,0.4,2.8,0.4,3.2c-0.1,2.4-0.2,3.9-0.3,4.6c-0.4,1.5-1.2,2.4-2.4,2.8c-0.8,0.2-2.1,0.3-4,0.3
			c-9.9,0-16.8-1.7-20.5-5.2c-0.6-0.5-0.8-1.5-0.7-2.9c0.2-1.7,0.2-2.8,0-3.3c-2.8-8.7-5.4-16.4-7.6-22.9
			c-5.4-15.9-8.8-25.3-10.4-28.1v45.6c0,1,0.3,2.4,0.9,4.1c0.8,2.1,1.2,3.5,1.3,4c0.3,1.5,0.4,3.4,0.2,5.5c-0.2,2.6-0.7,4.2-1.6,4.8
			c-0.5,0.3-1.3,0.5-2.6,0.5c-2.8,0-6.2-0.5-10.1-1.5c-4.2-1-6.7-2-7.5-3.1c-0.4-0.5-0.6-1.2-0.6-2c0-0.5,0.1-1.2,0.4-2.3
			c0.3-1.1,0.4-1.9,0.4-2.5v-81.3c0-0.9,0.4-2,1.1-3.2c0.8-1.2,1.6-2,2.6-2.4c1.3-0.5,6.3,0.4,15,2.8c9.1,2.4,13.9,4.4,14.5,6.2
			c0.2,0.7,0.3,1.6,0.1,2.8c-0.2,1.6-0.3,2.6-0.3,2.9c0,0.7,0.1,1.3,0.3,1.8l15.5,41.6c2.1-6.8,6-20.6,11.7-41.4
			c2.8-10.6,5.1-16.2,6.9-16.6c0.5-0.2,1.1-0.2,1.8-0.2c1.3,0,3.5,0.3,6.5,1c3.4,0.8,5.7,1.3,7,1.4c6,0.5,9.5,0.9,10.4,1
			c3.6,0.7,5.6,1.9,6.1,3.8c0.2,0.5,0.2,1.1,0.2,1.7c0,0.8-0.2,1.9-0.6,3.3c-0.4,1.4-0.6,2.5-0.6,3.2v70.2c0,0.8,0.5,1.9,1.4,3.4
			C-38.4,367.5-38,368.6-38.2,369.4z"/>
		<path class="st5" d="M23,358c-0.2,1.3-0.9,2.7-2,4.2s-2.1,2.4-2.9,2.7c-0.2,0.1-0.7-0.1-1.3-0.4c-0.6-0.3-1.1-0.5-1.5-0.5
			c-0.2,0-0.3,0-0.5,0.1c-2.4,0.7-4.7,1.6-7.1,2.8c-5.7,2.6-10.9,5.9-15.6,10c-7.6-3.1-11.8-4.9-12.5-5.2c-4.7-2.1-7.1-3.6-7.1-4.6
			v-86.3c0-0.5,0.9-1.3,2.7-2.3c1.8-1,3.1-1.5,4-1.4c0.9,0.1,2.8,0.7,5.5,1.8c2.8,1.1,5,1.7,6.8,1.7c2.3,0,5.3-1,8.9-3.1
			c3.4-2,5.5-2.8,6.3-2.5c1.8,0.6,4.6,2.6,8.2,6c3.6,3.4,5.6,5.8,5.9,7.3c0.2,0.7-0.6,1.9-2.1,3.6c-1.6,1.7-2.8,2.5-3.8,2.5
			c-0.8,0-1.5-0.1-1.8-0.3c-0.4-0.2-0.7-0.3-0.8-0.2c-2.8,0.6-5.3,1.3-7.7,2.2c-5.7,1.9-9.8,4.1-12.5,6.7v18.7
			c2.7-1.4,6.2-2.8,10.4-4.2c1.2-0.2,3.8,1.5,7.7,5.1c3.9,3.6,5.9,6,5.9,7.4c0,0.8-0.5,1.8-1.6,3c-1.1,1.1-2.1,1.9-3.1,2.2
			c-0.8,0-2.1,0.1-4,0.2c-2.9,0.5-8,3-15.4,7.3v12c2.3-1.4,5.4-3,9.3-4.9c3.9-1.9,6.4-2.8,7.3-2.8c1.1,0,3.8,1.7,8.1,5
			C21,355,23.1,357.1,23,358z"/>
	</g>
</g>
</svg>
