<?xml version="1.0" encoding="utf-8"?>
<!-- Generator: Adobe Illustrator 19.1.0, SVG Export Plug-In . SVG Version: 6.00 Build 0)  -->
<svg version="1.1" id="Layer_1" xmlns="http://www.w3.org/2000/svg" xmlns:xlink="http://www.w3.org/1999/xlink" x="0px" y="0px"
	 viewBox="0 0 21.4 21.4" style="enable-background:new 0 0 21.4 21.4;" xml:space="preserve">
<style type="text/css">
	.st0{fill:#666666;}
	.st1{fill:#FFFFFF;}
	.st2{fill:#0B0A35;}
	.st3{fill:#F15A24;}
</style>
<g>
	<g>
		<path class="st2" d="M10.7,0.3C4.9,0.3,0.3,4.9,0.3,10.7c0,5.8,4.7,10.4,10.4,10.4s10.4-4.7,10.4-10.4C21.2,4.9,16.5,0.3,10.7,0.3
			z"/>
	</g>
	<path class="st1" d="M17,12c0,0.1,0,0.3,0,0.4c0,2.4-2.8,4.3-6.3,4.3s-6.3-1.9-6.3-4.3c0-0.1,0-0.3,0-0.4c-0.4-0.3-0.7-0.8-0.7-1.4
		c0-1,0.8-1.7,1.7-1.7c0.4,0,0.7,0.1,1,0.3c1.1-0.7,2.4-1,3.9-1.1l1.1-3.1l2.6,0.6c0.2-0.5,0.7-0.8,1.3-0.8c0.8,0,1.4,0.6,1.4,1.4
		c0,0.8-0.6,1.4-1.4,1.4c-0.8,0-1.4-0.6-1.4-1.3l-2-0.5l-0.8,2.2c1.3,0.1,2.6,0.5,3.6,1.1c0.3-0.2,0.7-0.4,1-0.4
		c1,0,1.7,0.8,1.7,1.7C17.7,11.1,17.4,11.6,17,12z"/>
	<path class="st1" d="M16.1,12.3c0-1.9-2.4-3.4-5.4-3.4s-5.4,1.5-5.4,3.4s2.4,3.4,5.4,3.4C13.7,15.8,16.1,14.2,16.1,12.3z"/>
	<path class="st2" d="M12.8,13.6c-0.1,0-0.2,0-0.3,0.1c0,0-0.6,0.5-1.8,0.5c-1.2,0-1.7-0.5-1.7-0.5c-0.1-0.1-0.2-0.1-0.3-0.1
		c-0.1,0-0.2,0-0.3,0.1c-0.1,0.1-0.1,0.2-0.1,0.3c0,0.1,0,0.2,0.1,0.3c0,0,0.2,0.2,0.6,0.4c0.5,0.3,1.1,0.4,1.8,0.4
		c0.7,0,1.3-0.1,1.8-0.4c0.4-0.2,0.6-0.4,0.6-0.4c0.2-0.2,0.2-0.4,0-0.6C13,13.7,12.9,13.6,12.8,13.6z"/>
	<circle class="st3" cx="8.8" cy="11.6" r="1.1"/>
	<path class="st2" d="M4.6,10.5c0,0.2,0.1,0.3,0.1,0.5c0.2-0.5,0.6-0.9,1.1-1.3c-0.1,0-0.2,0-0.3,0C5,9.6,4.6,10.1,4.6,10.5z"/>
	<path class="st2" d="M15.6,9.7c0.5,0.4,0.8,0.9,1.1,1.4c0.1-0.1,0.2-0.3,0.2-0.5c0-0.5-0.4-0.9-0.9-0.9C15.8,9.6,15.7,9.7,15.6,9.7
		z"/>
	<circle class="st2" cx="15.4" cy="6.2" r="0.6"/>
	<circle class="st3" cx="12.8" cy="11.6" r="1.1"/>
</g>
</svg>
