<?xml version="1.0" encoding="utf-8"?>
<!-- Generator: Adobe Illustrator 19.1.0, SVG Export Plug-In . SVG Version: 6.00 Build 0)  -->
<svg version="1.1" id="Layer_1" xmlns="http://www.w3.org/2000/svg" xmlns:xlink="http://www.w3.org/1999/xlink" x="0px" y="0px"
	 viewBox="0 0 35.9 36.2" style="enable-background:new 0 0 35.9 36.2;" xml:space="preserve">
<style type="text/css">
	.st0{fill:#F1C40F;stroke:#1A1A1A;stroke-width:2;stroke-miterlimit:10;}
</style>
<g>
	<circle class="st0" cx="18.1" cy="18.2" r="16.6"/>
	<path class="st0" d="M26.9,17l-1.7-1.7V11c0-0.7-0.5-1.2-1.2-1.2h-1.2c-0.7,0-1.2,0.5-1.2,1.2v0.7l-2.4-2.4
		c-0.3-0.3-0.6-0.7-1.2-0.7c-0.6,0-0.9,0.3-1.2,0.7L9.2,17c-0.3,0.3-0.7,0.7-0.7,1.2c0,0.7,0.5,1.2,1.2,1.2h1.2v7.1
		c0,0.7,0.5,1.2,1.2,1.2h3.5v-5.9c0-0.7,0.5-1.2,1.2-1.2h2.4c0.7,0,1.2,0.5,1.2,1.2v5.9H24c0.7,0,1.2-0.5,1.2-1.2v-7.1h1.2
		c0.7,0,1.2-0.5,1.2-1.2C27.5,17.7,27.3,17.4,26.9,17z"/>
</g>
</svg>
