<?xml version="1.0" encoding="utf-8"?>
<!-- Generator: Adobe Illustrator 19.1.0, SVG Export Plug-In . SVG Version: 6.00 Build 0)  -->
<svg version="1.1" id="Layer_1" xmlns="http://www.w3.org/2000/svg" xmlns:xlink="http://www.w3.org/1999/xlink" x="0px" y="0px"
	 viewBox="-461.7 262.8 36.7 36.8" style="enable-background:new -461.7 262.8 36.7 36.8;" xml:space="preserve">
<style type="text/css">
	.st0{fill:#519640;}
	.st1{fill-rule:evenodd;clip-rule:evenodd;fill:#FFFFFF;}
</style>
<circle class="st0" cx="-443.3" cy="281.2" r="17.9"/>
<g id="icons-key">
	<path class="st1" d="M-441,280.4l-4,3.4c-0.1,0.1-0.1,0.2,0,0.3l2.2,2.7c1.2-0.5,2.6-0.2,3.4,0.9c0.8,1,0.9,2.5,0.2,3.5l0.8,0.9
		c1.3-0.4,2.8-0.3,4,0.2l1.9-1.6c0.1-0.1,0.1-0.2,0-0.3l-8.3-9.9C-440.8,280.3-440.9,280.3-441,280.4z"/>
	<path class="st1" d="M-441.3,272.8c2.6,3.1,2.2,7.6-0.9,10.2c-3.1,2.6-7.6,2.2-10.2-0.9c-2.6-3.1-2.2-7.6,0.9-10.2
		C-448.4,269.4-443.9,269.8-441.3,272.8z M-448.7,275.2c-1.2,1-1.4,2.8-0.4,4c1,1.2,2.8,1.4,4,0.4c1.2-1,1.4-2.8,0.4-4
		C-445.7,274.4-447.5,274.2-448.7,275.2z"/>
</g>
</svg>
