<?xml version="1.0" encoding="utf-8"?>
<!-- Generator: Adobe Illustrator 19.1.0, SVG Export Plug-In . SVG Version: 6.00 Build 0)  -->
<svg version="1.1" id="Layer_1" xmlns="http://www.w3.org/2000/svg" xmlns:xlink="http://www.w3.org/1999/xlink" x="0px" y="0px"
	 viewBox="0 0 37 36.2" style="enable-background:new 0 0 37 36.2;" xml:space="preserve">
<style type="text/css">
	.st0{fill:none;stroke:#1A1A1A;stroke-miterlimit:10;}
	.st1{fill:#1A1A1A;}
</style>
<circle class="st0" cx="18.5" cy="18.4" r="16.2"/>
<path id="shop_9_" class="st1" d="M29.3,15.1l-2-2.8c-0.1-0.1-0.2-0.2-0.3-0.3V8.7c0-0.8-0.6-1.4-1.4-1.4h-14
	c-0.8,0-1.4,0.6-1.4,1.4V12c-0.1,0.1-0.2,0.2-0.3,0.3l-2,2.8c-0.3,0.4-0.4,0.8-0.4,1.3v0.7c0,1.2,1,2,2,2l0,0v9.1
	c0,0.8,0.6,1.4,1.4,1.4h15.3c0.8,0,1.4-0.6,1.4-1.4v-9.1l0,0c1.2,0,2-1,2-2v-0.7C29.7,15.9,29.6,15.4,29.3,15.1z M25.5,8.7v2.8H11.5
	l0,0V8.7H25.5z M14.4,17.7h-2.9l2.8-4.9h1.6L14.4,17.7z M16.6,12.9h1.6v4.9h-2.9L16.6,12.9z M18.8,12.9h1.6l1.4,4.9h-3L18.8,12.9
	L18.8,12.9z M21.2,12.9h1.6l2.8,4.9h-2.9L21.2,12.9z M8.7,17.1v-0.7c0-0.2,0.1-0.3,0.1-0.4l2-2.8c0.1-0.2,0.3-0.3,0.6-0.3h2
	l-2.8,4.9H9.5C9.1,17.7,8.7,17.5,8.7,17.1z M21.3,28.2H16v-7h5.3V28.2z M26.1,28.2h-4.2v-7c0-0.4-0.3-0.7-0.7-0.7H16
	c-0.4,0-0.7,0.3-0.7,0.7v7h-4.5v-9.1h15.3V28.2z M28.3,17.1c0,0.4-0.3,0.7-0.7,0.7h-1.3l-2.8-4.9h2l0,0c0.2,0,0.4,0.1,0.6,0.3l2,2.8
	c0.1,0.1,0.1,0.3,0.1,0.4L28.3,17.1L28.3,17.1z"/>
</svg>
